<?xml version="1.0" encoding="utf-8"?>
<!-- Generator: Adobe Illustrator 23.0.3, SVG Export Plug-In . SVG Version: 6.00 Build 0)  -->
<svg version="1.1" id="Layer_1" xmlns="http://www.w3.org/2000/svg" xmlns:xlink="http://www.w3.org/1999/xlink" x="0px" y="0px"
	 viewBox="0 0 178 147.1" style="enable-background:new 0 0 178 147.1;" xml:space="preserve">
<style type="text/css">
	.st0{fill:#D60A51;}
	.st1{fill:url(#SVGID_1_);}
	.st2{fill:url(#SVGID_2_);}
	.st3{fill:url(#SVGID_3_);}
	.st4{fill:url(#SVGID_4_);}
	.st5{fill:url(#SVGID_5_);}
	.st6{fill:url(#SVGID_6_);}
	.st7{fill:url(#SVGID_7_);}
	.st8{fill:url(#SVGID_8_);}
	.st9{fill:url(#SVGID_9_);}
	.st10{fill:url(#SVGID_10_);}
	.st11{fill:url(#SVGID_11_);}
	.st12{fill:url(#SVGID_12_);}
	.st13{fill:url(#SVGID_13_);}
	.st14{fill:url(#SVGID_14_);}
	.st15{fill:url(#SVGID_15_);}
	.st16{fill:url(#SVGID_16_);}
	.st17{fill:url(#SVGID_17_);}
	.st18{fill:url(#SVGID_18_);}
	.st19{fill:url(#SVGID_19_);}
	.st20{fill:url(#SVGID_20_);}
	.st21{fill:url(#SVGID_21_);}
	.st22{fill:url(#SVGID_22_);}
	.st23{fill:url(#SVGID_23_);}
	.st24{fill:#B80846;}
	.st25{fill:#7D062F;}
	.st26{fill:#9E073C;}
	.st27{fill:url(#SVGID_24_);}
</style>
<title>Artboard 1</title>
<g id="XMLID_6_">
	<g>
		<g>
			<path class="st0" d="M61.1,28c0.6,0.2,1.1,0.4,1.7,0.6c0.5,0.1,0.9,0.2,1.3,0.2c0.1,0,0.2,0,0.3,0c0.1,0,0.3-0.2,0.6-0.5
				c0.2-0.3,0.5-0.7,0.7-1.2c0.3-0.5,0.5-1,0.8-1.6c0.3-0.6,0.5-1.1,0.7-1.6c0.2-0.5,0.4-1,0.5-1.4c0.2-0.4,0.2-0.6,0.3-0.7
				c0-0.1-0.2-0.4-0.6-0.6c-0.4-0.3-0.9-0.6-1.5-0.8c-0.6-0.3-1.2-0.5-1.8-0.7c-0.5-0.1-0.9-0.2-1.2-0.2c-0.1,0-0.2,0-0.3,0
				c-0.2,0-0.5,0.3-0.9,0.9c-0.4,0.6-0.8,1.3-1.1,2.1c-0.4,0.8-0.7,1.6-1,2.4c-0.3,0.8-0.4,1.5-0.4,2c0,0.1,0.2,0.3,0.6,0.5
				C60.1,27.6,60.6,27.8,61.1,28z"/>
			<path class="st0" d="M66.1,44.2c-0.5,0.5-1.1,1.2-1.8,1.8c-0.7,0.7-1.4,1.4-2.1,2.1c-0.7,0.7-1.4,1.3-2.1,1.9
				c-0.7,0.6-1.3,1.1-1.8,1.4c-0.5,0.4-0.9,0.6-1.2,0.6C57,52,57,52,57,51.9c0-0.3,0.1-0.7,0.2-1.3c0.2-0.6,0.4-1.3,0.6-2.1
				c0.3-0.8,0.5-1.6,0.9-2.6c0.3-0.9,0.6-1.8,1-2.7c0.3-0.9,0.6-1.8,0.9-2.6c0.3-0.9,0.5-1.6,0.7-2.2c0-0.2,0.1-0.3,0.1-0.4
				c0-0.1,0-0.2,0-0.3c0-0.3-0.3-0.7-0.7-1.2c-0.5-0.4-1.1-0.8-1.7-1.1c-0.6-0.3-1.2-0.6-1.8-0.9c-0.5-0.2-0.9-0.3-1.1-0.3
				c-0.1,0-0.3,0.4-0.6,1c-0.3,0.7-0.7,1.6-1.1,2.7c-0.4,1.1-0.9,2.3-1.3,3.7c-0.5,1.4-1,2.8-1.4,4.3c-0.5,1.5-0.9,2.9-1.3,4.3
				c-0.4,1.4-0.7,2.6-0.9,3.7c0,0.4,0.2,0.8,0.5,1.2c0.4,0.4,0.8,0.8,1.3,1.1c0.5,0.3,1,0.5,1.6,0.7c0.4,0.1,0.8,0.2,1.1,0.2
				c0.1,0,0.2,0,0.2,0c0.6-0.1,1.3-0.3,2.1-0.8c0.8-0.5,1.7-1.1,2.6-1.8c0.9-0.7,1.9-1.6,2.8-2.5c1-0.9,1.9-1.8,2.8-2.7
				c0.3-0.3,0.6-0.7,1-1c-0.1,0.7-0.1,1.4-0.1,2.2c0,0.6,0.2,1.2,0.7,1.8c0.5,0.6,1.1,1,1.7,1.4c0.6,0.4,1.3,0.7,2,0.9
				c0.5,0.2,1,0.3,1.3,0.3c0.1,0,0.2,0,0.2,0c1.1-0.2,2.2-0.8,3.4-1.8c1.2-1,2.4-2.2,3.7-3.5c0.2,0.5,0.6,1,1.1,1.5
				c0.5,0.4,1.1,0.8,1.7,1.1c0.6,0.3,1.1,0.5,1.7,0.7c0.4,0.1,0.8,0.2,1.1,0.2c0.1,0,0.2,0,0.3,0c0.7-0.1,1.4-0.4,2.2-0.9
				c0.8-0.4,1.5-1,2.4-1.7c0.8-0.7,1.6-1.4,2.4-2.3c0.8-0.8,1.6-1.7,2.4-2.7c0.7,0.5,1.5,0.7,2.5,0.7c0.3,0,0.6,0,1-0.1
				c1.5-0.2,3-0.9,4.6-2c0.7-0.5,1.5-1.2,2.4-1.9c0,0.2-0.1,0.3-0.1,0.5c-0.4,1.4-0.7,2.6-0.9,3.7c0,0.4,0.2,0.8,0.5,1.2
				c0.4,0.4,0.8,0.7,1.3,1c0.5,0.3,1,0.5,1.6,0.7c0.4,0.1,0.8,0.2,1.1,0.2c0.1,0,0.2,0,0.2,0c0.6-0.1,1.2-0.4,2.1-0.8
				c0.8-0.5,1.7-1.1,2.6-1.8c0.9-0.7,1.9-1.6,2.8-2.5c1-0.9,1.9-1.8,2.8-2.7c0.9-0.9,1.7-1.8,2.5-2.6c0.8-0.8,1.4-1.5,1.9-2.1
				c-0.3-0.3-0.5-0.5-0.8-0.8c-0.3-0.3-0.6-0.5-0.8-0.7c-0.3,0.3-0.7,0.7-1.2,1.2c-0.5,0.5-1.1,1.1-1.8,1.8c-0.7,0.7-1.4,1.3-2.1,2
				c-0.7,0.7-1.4,1.3-2.1,1.9c-0.7,0.6-1.3,1.1-1.8,1.4c-0.5,0.4-0.9,0.6-1.2,0.6c-0.1,0-0.2-0.1-0.2-0.2c0-0.3,0.1-0.7,0.2-1.3
				c0.2-0.6,0.4-1.3,0.6-2.1c0.3-0.8,0.5-1.6,0.9-2.5c0.3-0.9,0.6-1.8,1-2.7c0.3-0.9,0.6-1.8,0.9-2.6c0.3-0.8,0.5-1.6,0.7-2.2
				c0-0.2,0.1-0.3,0.1-0.4c0-0.1,0-0.2,0-0.3c0-0.4-0.3-0.7-0.8-1.2c-0.5-0.4-1.1-0.8-1.7-1.2c-0.6-0.4-1.2-0.7-1.8-0.9
				c-0.5-0.2-0.9-0.3-1.1-0.3c-0.1,0-0.3,0.4-0.6,1c-0.3,0.7-0.7,1.6-1.1,2.7c-0.4,1.1-0.9,2.3-1.4,3.8c-0.4,1.2-0.8,2.4-1.3,3.5
				c-1.5,1.6-2.9,2.9-4,4c-1.2,1-2.4,1.6-3.5,1.8c-0.3,0-0.5,0.1-0.7,0.1c-0.7,0-1.1-0.2-1.5-0.5c0.7-1,1.4-2.1,2-3.1
				c0.6-1,1.2-2,1.6-2.9c0.5-0.9,0.8-1.8,1.1-2.5c0.3-0.8,0.4-1.4,0.4-1.9c-0.1-0.2-0.2-0.5-0.6-0.9c-0.3-0.4-0.7-0.7-1.2-1
				c-0.5-0.3-1-0.7-1.6-0.9c-0.6-0.3-1.2-0.5-1.7-0.6c-0.4,0.5-0.9,1.3-1.4,2.2c-0.5,1-0.9,2-1.3,3.2c-0.4,1.1-0.7,2.2-1,3.4
				c-0.3,1.1-0.4,2.1-0.4,2.8c0,1,0.1,1.8,0.3,2.5c-0.5,0.7-1,1.5-1.6,2.2c-0.5,0.7-1.1,1.3-1.6,1.9c-0.5,0.5-1,1-1.5,1.3
				c-0.5,0.3-0.9,0.6-1.4,0.6c-0.1,0-0.2-0.1-0.3-0.2c-0.1-0.1-0.1-0.3-0.1-0.5c0-0.3,0.1-0.7,0.2-1.4c0.1-0.6,0.3-1.4,0.5-2.2
				c0.2-0.8,0.4-1.8,0.7-2.7c0.3-1,0.6-2,0.9-3c0.3-1,0.6-2,1-2.9c0.4-0.9,0.7-1.8,1-2.6c-1-0.7-2.1-1.3-3.2-1.8
				c-1.2-0.5-2.3-0.9-3.6-1.3c-0.4,1.2-0.8,2.4-1.3,3.7c-0.4,1.2-0.8,2.5-1.2,3.8c-0.4,1.3-0.7,2.5-1.1,3.8
				c-0.3,1.3-0.6,2.6-0.7,3.8c-0.5,0.7-1,1.4-1.5,2c-0.5,0.6-1,1.2-1.5,1.7c-0.5,0.5-0.9,0.9-1.4,1.2c-0.4,0.3-0.8,0.5-1.3,0.6
				c-0.1,0-0.2-0.1-0.3-0.2c-0.1-0.1-0.1-0.3-0.1-0.5c0-0.3,0.1-0.8,0.2-1.5c0.1-0.7,0.3-1.5,0.5-2.5c0.2-0.9,0.5-2,0.8-3.1
				c0.3-1.1,0.6-2.2,1-3.3c0.3-1.1,0.7-2.2,1.1-3.2c0.4-1,0.7-1.9,1.1-2.7c-1-0.7-2.1-1.3-3.2-1.8c-1.2-0.5-2.3-0.9-3.6-1.3
				c-0.5,1.5-1,3-1.6,4.7c-0.6,1.6-1.1,3.3-1.6,5C66.7,41.6,66.4,42.9,66.1,44.2z"/>
			<path class="st0" d="M7.3,70.3c0.5,0.3,1,0.7,1.6,1c0.6,0.4,1.3,0.8,1.9,1.3c0.2,0.2,0.5,0.2,0.7,0.2c0.4,0,0.8-0.2,1.1-0.6
				c2.7-5.4,9.2-18.3,11-22.1c1.5-3.2,3.1-6.5,4.5-9.8c0.2-0.5,0.6-0.7,1.1-0.7c0.5,0,0.9,0.3,1.1,0.8c2.1,5.9,4.6,12.7,6.3,16.6
				c0.7,1.6,2.1,2.2,3.6,2.2c1.7,0,3.5-0.7,4.7-1.2c0.7-0.3,0.9-1.2,0.5-1.8c-2.7-3.6-7.8-12.7-10.7-17.6c-0.3-0.5-0.2-1.2,0.3-1.6
				c3.8-2.7,7.2-5.3,10.2-7.9c3.3-2.7,6.3-5.4,9-8.1c2.7-2.6,5.2-5.3,7.5-7.9c2-2.3,4.1-4.7,6.1-7.1c0.4-0.5,0.3-1.3-0.2-1.7
				C67.3,4.2,67,4,66.7,3.8c-0.7-0.5-1.4-1-2.1-1.5c-0.7-0.5-1.5-1-2.2-1.5c-0.3-0.2-0.6-0.4-0.9-0.6C61.3,0.1,61.1,0,60.9,0
				c-0.4,0-0.8,0.2-1.1,0.6C59,2.2,58,3.8,56.9,5.5c-1.4,2.1-2.8,4.2-4.5,6.3c-1.6,2.1-3.4,4.3-5.2,6.4c-1.8,2.1-3.7,4.2-5.6,6.3
				c-1.9,2-3.9,4-5.8,5.9c-0.5,0.5-1.1,1.1-1.6,1.6c-0.2,0.2-0.5,0.3-0.8,0.3c-0.8,0-1.5-0.8-1.1-1.7c1.2-3,2.5-6,3.7-9.1
				c1.9-4.7,3.7-9.7,5.7-15c0.2-0.4,0-0.9-0.3-1.3c-0.3-0.3-0.7-0.6-1-0.9c-0.6-0.5-1.3-1.1-2-1.6c-0.7-0.6-1.4-1.1-2.2-1.7
				c-0.3-0.2-0.5-0.4-0.8-0.6c-0.2-0.2-0.5-0.3-0.7-0.3c-0.5,0-1,0.3-1.1,0.9c-0.9,3.3-1.9,6.6-2.9,9.9c-1.2,3.9-2.5,7.7-3.8,11.5
				c-1.3,3.8-2.6,7.4-3.9,10.9c-1.3,3.5-2.6,6.8-3.9,10c-1.3,3.1-2.5,6.1-3.7,8.7c-1.1,2.4-6.5,13.2-8.3,16.8
				C6.6,69.3,6.8,70,7.3,70.3z"/>
			<path class="st0" d="M100.1,130.5c-0.2-0.6-0.8-1-1.4-1c-0.1,0-0.3,0-0.4,0.1c-4.4,1.5-11.8,3.9-20.6,3.9c-5,0-10.4-0.8-15.9-2.9
				c-11.3-4.4-17.5-16.2-18.3-19c4.7-3,8.8-6.3,12.1-9.8c3.3-3.5,6-7,8-10.6c2-3.5,3.5-7,4.3-10.5c0.9-3.5,1.2-6.7,0.9-9.7
				c-0.1-0.6-0.3-1.3-0.7-2c-0.4-0.7-0.9-1.4-1.5-2.1c-0.6-0.7-1.3-1.4-2.1-2c-0.8-0.6-1.6-1.2-2.4-1.6c-0.8-0.4-1.6-0.8-2.4-1
				c-0.5-0.1-0.9-0.2-1.4-0.2c-0.3,0-0.6,0-0.8,0.1c-2.7,0.6-5.5,1.7-8.3,3.4c-2.8,1.7-5.6,3.7-8.5,6.2c0.1-0.6,0.2-1.2,0.2-1.7
				c0-0.5,0.1-1.1,0.1-1.6c-0.4-0.5-1-1.1-1.7-1.8c-0.7-0.7-1.5-1.3-2.4-1.9c-0.9-0.6-1.9-1.2-3.1-1.7c-1.1-0.5-2.3-0.9-3.5-1.2
				c0,3.1-0.3,6.9-0.9,11.2c-0.7,4.4-1.6,9-2.8,14c-2.2,2.8-4.3,5.7-6.4,8.7c-2,3-4,6-5.8,9c-1.8,3-3.5,6-5.1,9
				c-1.6,3-3,5.9-4.2,8.6c-1.2,2.8-2.3,5.4-3.2,7.9c-0.9,2.5-1.6,4.8-2,6.8C0,137.8,0,138.4,0,139c0.1,0.6,0.2,1.1,0.5,1.5
				c0.1,0.1,0.3,0.4,0.6,0.8c0.3,0.4,0.7,0.9,1.2,1.4c0.5,0.5,1,1,1.5,1.6c0.6,0.6,1.1,1,1.6,1.5c0.5,0.4,1.1,0.8,1.6,1
				c0.4,0.2,0.7,0.3,1.3,0.3c0.9-0.2,1.7-0.5,2.3-0.8c0.6-0.3,1.2-0.6,1.6-0.9c1.7-1.2,3.4-3,5.1-5.5c1.7-2.5,3.4-5.3,5.1-8.6
				c1.7-3.3,3.3-6.9,4.8-10.7c1.6-3.9,3-7.9,4.4-12c1.4-4.1,2.6-8.2,3.8-12.2c1.1-4.1,2.1-7.9,3-11.6c1.9-2.2,3.8-4.3,5.7-6.2
				c1.9-2,3.7-3.7,5.5-5.3c1.8-1.6,3.4-2.9,5.1-4.1c1.6-1.1,3.1-2,4.5-2.6c0.8-0.3,1.4-0.4,2.1-0.5c0.4,0,0.8,0.1,1,0.3
				c0.3,0.2,0.5,0.5,0.6,0.9c0.1,0.4,0.2,0.9,0.2,1.4c0.1,1.4,0,3.1-0.3,4.9c-0.3,1.8-0.9,3.8-1.8,5.8c-0.9,2.1-2,4.2-3.4,6.4
				c-1.4,2.2-3.2,4.5-5.3,6.8c-2.1,2.3-4.6,4.5-7.5,6.7c-2.9,2.2-6.1,4.3-9.8,6.3c0.7,2.7,1.4,5.5,2.2,8.2c0.8,2.7,1.5,5.4,2.4,7.9
				c3.3,9,9.8,14.4,20.5,18.6c2.7,1,5.8,1.5,9.1,1.5c12.8,0,28.3-6.3,30.4-7.5c0.9-0.5,1.3-1.6,0.9-2.6L100.1,130.5z M17.4,118.9
				c-1.3,3.7-2.6,7-3.9,9.8c-1.2,2.8-2.4,5.1-3.4,6.7c-1,1.7-1.9,2.6-2.6,2.6c0,0-0.1,0-0.1,0c-0.2,0-0.4-0.2-0.4-0.5
				c-0.1-1.4,0.2-3.2,0.9-5.4c0.7-2.2,1.7-4.6,2.9-7.2c1.3-2.6,2.8-5.5,4.6-8.5c1.8-3,3.8-6.1,5.9-9.3
				C20,111.3,18.7,115.2,17.4,118.9z"/>
			<path class="st0" d="M113.2,19.7c0.4,0.2,0.9,0.5,1.4,0.7c0.6,0.2,1.1,0.4,1.7,0.6c0.5,0.1,1,0.2,1.4,0.2c0.1,0,0.1,0,0.2,0
				c0.1,0,0.3-0.2,0.6-0.5c0.2-0.3,0.5-0.7,0.7-1.2c0.3-0.5,0.5-1,0.8-1.6c0.3-0.6,0.5-1.1,0.7-1.6c0.2-0.5,0.4-1,0.5-1.3
				c0.2-0.4,0.2-0.6,0.3-0.7c0-0.1-0.2-0.4-0.6-0.7c-0.4-0.3-0.9-0.6-1.5-0.9c-0.6-0.3-1.2-0.5-1.8-0.7c-0.5-0.2-0.9-0.2-1.3-0.2
				c-0.1,0-0.2,0-0.3,0c-0.2,0-0.5,0.3-0.9,0.9c-0.4,0.6-0.8,1.3-1.1,2.1c-0.4,0.8-0.7,1.6-1,2.4c-0.3,0.8-0.4,1.5-0.4,2
				C112.6,19.2,112.8,19.4,113.2,19.7z"/>
			<path class="st0" d="M99.2,58.4l-14.4,3.4c-0.2,0-0.3,0.2-0.3,0.3l-1.5,5.7c-0.1,0.2,0,0.4,0.2,0.5l12.3,7.1
				c0.2,0.1,0.5,0.1,0.6-0.1l7.8-11.2c0.1-0.2,0.1-0.4,0-0.6l-4.3-5.1C99.6,58.4,99.4,58.4,99.2,58.4z"/>
			<path class="st0" d="M178,67.1c-0.1-0.9-0.2-1.9-0.4-2.8c-0.4-1.9-1.1-3.8-2.2-5.5c-0.5-0.8-1.2-1.6-1.9-2.3
				c-0.7-0.7-1.4-1.4-2.3-1.9c-1.6-1.2-3.7-2-5.7-2.2c-1-0.1-2-0.1-3,0c-1,0.1-1.9,0.3-2.9,0.6c-1.8,0.6-3.5,1.4-5,2.4
				c-1.5,1-2.9,2.1-4.1,3.4c-0.6,0.6-1.2,1.2-1.8,1.9c-0.3,0.3-0.6,0.7-0.8,1c-0.3,0.3-0.5,0.7-0.8,1.1l1.6,1.4
				c0.3-0.2,0.6-0.5,0.9-0.7l1-0.7c0.6-0.5,1.3-0.9,2-1.4c1.3-0.9,2.7-1.7,4.1-2.4c1.4-0.7,2.8-1.2,4.2-1.5c1.4-0.3,2.7-0.4,4-0.2
				c0.6,0.1,1.2,0.3,1.8,0.5c0.6,0.3,1.1,0.6,1.7,1c0.5,0.4,1,0.8,1.5,1.3c0.5,0.5,0.9,1,1.2,1.6c0.7,1.1,1.2,2.4,1.5,3.7
				c0.3,1.4,0.4,2.8,0.3,4.3c-0.1,1.5-0.3,3-0.7,4.5c-0.4,1.5-0.8,3-1.4,4.5c-1.1,3-2.5,5.8-4.1,8.6c-1.6,2.8-3.4,5.4-5.4,8
				c-0.4,0.5-0.7,0.9-1.1,1.3c0.3-1.1,0.6-2.2,0.9-3.4c0.3-1.2,0.6-2.5,1-3.9c0.4-1.4,0.8-3,1.3-4.7c0.5-1.7,1.1-3.6,1.7-5.7
				c0.1-0.2,0.1-0.3,0.1-0.4c0-0.1,0-0.3,0-0.4c0-0.3-0.3-0.8-1-1.4c-0.7-0.6-1.4-1.2-2.2-1.7c-0.8-0.6-1.6-1.1-2.4-1.5
				c-0.7-0.4-1.2-0.6-1.4-0.6c-0.1,0-0.4,0.6-0.7,1.8c-0.4,1.2-0.9,2.8-1.4,4.8c-1.4,2.6-2.8,4.8-4.1,6.7c-1.3,1.9-2.5,3.4-3.5,4.7
				c-1,1.2-1.9,2.1-2.6,2.7c-0.7,0.6-1.2,0.9-1.5,0.7c0-0.5,0.1-1.1,0.4-2.1c0.3-1,0.7-2,1.1-3.2c0.5-1.2,0.9-2.4,1.5-3.7
				s1.1-2.5,1.5-3.6c0.5-1.1,0.9-2.1,1.3-2.9c0.4-0.8,0.6-1.3,0.7-1.5c0-0.2-0.4-0.4-1-0.8c-0.7-0.4-1.5-0.7-2.4-1.1
				c-0.9-0.4-1.9-0.7-2.9-1c-1-0.3-1.8-0.5-2.7-0.3c-1.1,3-2.1,5.8-3.1,8.4c-0.9,2.4-1.6,4.6-2.3,6.6c-0.4,0.4-0.8,0.8-1.2,1.1
				c-0.9,0.8-1.7,1.4-2.6,1.9c-0.9,0.5-1.8,0.9-2.7,1.1c-0.9,0.3-1.9,0.5-3.1,0.6c0.8-1.3,1.5-2.6,2.1-3.9c0.5-1.3,0.9-2.5,1-3.6
				c-0.3-0.6-0.7-1.2-1-1.8c-0.4-0.6-0.7-1.1-1.1-1.7c-0.4-0.5-0.8-1-1.1-1.4c-0.4-0.4-0.7-0.7-1.5-1c-1.7,0-2.7,0.9-3.3,1.8
				c-0.7,0.9-1.3,1.9-1.9,3c-0.6,1-0.9,2.8-0.9,4c0.1,2.6,0.7,2.4,0.7,3.5c0,0.2,0,0.3,0,0.5c0,0.2,0,0.4,0,0.6
				c-0.5,0.8-1.1,1.6-1.7,2.4c-0.6,0.8-1.2,1.5-1.7,2.1c-0.6,0.6-1.1,1.1-1.6,1.5c-0.5,0.4-1,0.6-1.5,0.7c-0.3,0-0.5-0.1-0.6-0.3
				c-0.1-0.3-0.2-0.8-0.2-1.7c0-0.5,0.1-1.3,0.2-2.1c0.1-0.9,0.3-1.9,0.6-3.1c0.2-1.2,0.5-2.5,0.9-3.9c0.3-1.4,0.7-2.9,1.2-4.4
				c2.5-2.5,4.9-5,7.3-7.5c2.4-2.5,4.7-5,6.9-7.4c2.2-2.5,4.3-4.9,6.2-7.3c1.9-2.4,3.6-4.7,5.1-7c1.5-2.3,5.3-8.5,7.3-17
				c0.6-2-0.2-5.8-0.8-6.4c-0.6-0.7-1.3-1.3-2-1.8c-0.7-0.5-1.5-0.8-2.3-1.2c-0.3-0.2-0.7-0.2-1.1-0.2c-1.6,0-3.6,1-4.9,1.7
				c-6.2,3.2-12.3,10.9-15.3,16.6c-2,3.8-5.5,10.1-8.3,15.5c-2.1,4-4,8.9-5.4,12.6c-1.4,3.7-2.5,7.1-3.3,10.3c-0.8,3-1.3,5.7-1.6,8
				c-0.7,0.7-1.5,1.5-2.3,2.3c-0.9,0.8-1.8,1.7-2.7,2.6c-0.9,0.9-1.8,1.7-2.7,2.4c-0.9,0.7-1.6,1.3-2.3,1.8
				c-0.7,0.5-1.2,0.7-1.8,0.6c0-0.4,0.1-0.9,0.3-1.8c0.2-0.8,0.4-1.8,0.7-2.8c0.3-1.1,0.6-2.2,1-3.5c0.4-1.2,0.8-2.5,1.2-3.7
				c0.4-1.2,0.8-2.4,1.1-3.6c0.4-1.1,0.5-0.8,0.8-1.6c0.1-0.2,0.1-0.3,0.1-0.6c0-0.2,0-0.4,0-0.5c-0.1-0.2-0.4-0.5-1-0.9
				c-0.6-0.4-1.3-0.8-2.1-1.3c-0.8-0.4-1.5-0.8-2.2-1.1c-0.6-0.3-1.1-0.4-1.4-0.4c-0.3,0.1-0.5,0.2-0.6,0.5
				c-0.3,0.9-0.5,1.8-0.8,2.7c-1.7,3.7-3.2,5.4-4.8,8c-1.5,2.4-2.8,4.3-3.9,5.9c-1.2,1.5-2.1,2.7-2.9,3.5c-0.8,0.8-1.3,1.2-1.7,1
				c0-0.5,0.1-1.2,0.4-2.1c0.3-1,0.7-2.1,1.1-3.3c0.5-1.2,1-2.5,1.5-3.9c0.5-1.4,1.1-2.6,1.5-3.8c0.5-1.2,3.4-8.9,3.8-9.7
				c0.4-0.8,0.6-1.4,0.7-1.6c0-0.2-0.3-0.4-1-0.7c-0.7-0.3-1.5-0.6-2.4-0.9c-0.9-0.3-1.9-0.6-2.9-0.8c-1-0.2-1.8-0.3-2.7-0.1
				c-1.1,3.1-4.7,12.7-5.6,15.5c-1,2.8-1.8,5.3-2.5,7.5c-0.7,2.2-1.3,4.1-1.7,5.7c-0.4,1.6-0.6,2.7-0.6,3.4c0,0.6,0.2,1.1,0.6,1.7
				c0.4,0.6,0.9,1.1,1.5,1.5c0.6,0.4,1.2,0.7,1.9,1c0.5,0.2,1,0.3,1.4,0.3c0.2,0,0.3,0,0.4,0c0.3,0,0.6-0.1,0.9-0.2
				c0.3-0.1,0.6-0.3,0.8-0.5c0.4-0.3,1-0.9,1.8-1.6c0.8-0.7,1.7-1.7,2.8-2.8c1.1-1.1,2.2-2.5,3.5-4.1c1.3-1.6,2.6-3.4,3.9-5.4
				c-0.5,1.9-0.9,3.5-1.3,4.9c-0.3,1.4-0.5,2.3-0.5,2.8c0,0.5,0.2,1.1,0.6,1.6c0.4,0.5,0.8,1,1.4,1.4c0.6,0.4,1.1,0.7,1.8,0.9
				c0.5,0.2,0.9,0.2,1.3,0.2c0.1,0,0.3,0,0.4,0c0.7-0.1,1.5-0.5,2.6-1.1c1-0.6,2.1-1.4,3.3-2.3c1.2-0.9,2.4-2,3.7-3.1
				c1.3-1.1,2.5-2.3,3.6-3.5c0.6-0.6,1.1-1.1,1.7-1.7c0,0.5,0,0.9,0,1.2c0,0.6,0.3,1.3,0.8,2.2c0.5,0.9,1.2,1.7,2.1,2.5
				c0.8,0.8,1.8,1.4,2.8,2c0.8,0.4,1.6,0.6,2.3,0.6c0.2,0,0.4,0,0.5,0c1-0.1,2-0.5,3.1-1c1.1-0.5,2.2-1.2,3.3-2
				c1.1-0.8,2.2-1.7,3.3-2.8c1.1-1,2.1-2.1,3.7-3.3c0.2,0,0.4-0.1,0.6-0.1c1.3-0.2,2.6-0.4,3.8-0.7c1.2-0.3,2.5-0.8,3.7-1.5
				c0.7-0.4,1.4-0.8,2.1-1.2c-0.1,0.3-0.1,0.5-0.2,0.8c-0.4,1.5-0.6,2.6-0.6,3.2c0,0.6,0.2,1.1,0.6,1.7c0.4,0.6,0.9,1.1,1.5,1.6
				c0.6,0.5,1.2,0.8,1.9,1.1c0.6,0.2,1.1,0.4,1.9,0.3c0.3,0,0.6-0.1,0.9-0.2c0.3-0.1,0.6-0.2,0.8-0.4c0.4-0.3,0.9-0.7,1.7-1.3
				c0.7-0.6,1.6-1.3,2.6-2.3c1-0.9,2.1-2,3.3-3.3c1.2-1.3,2.4-2.8,3.7-4.5c-0.8,2.5-1.5,5-2.3,7.5c-0.8,2.5-1.6,5-2.5,7.3
				c-2.7,2.2-5.3,4.3-7.7,6.3c-2.4,2.1-4.4,4.1-6.2,6.1c-1.8,2-3.1,3.9-4.1,5.8c-1,1.9-1.5,3.8-1.5,5.7c0,0.5,0.2,1.1,0.7,1.7
				c0.4,0.6,1,1.1,1.6,1.6c0.6,0.5,1.3,0.9,2,1.2c0.6,0.2,1.1,0.4,1.7,0.4c1-0.1,2-0.5,3.2-1.1c1.2-0.7,2.4-1.5,3.6-2.6
				c1.3-1.1,2.5-2.4,3.8-3.9c1.3-1.5,2.6-3.1,3.8-4.8c1.2-1.7,2.4-3.6,3.5-5.5c1.1-1.9,2-3.9,2.9-5.9c0.8-1.8,1.4-3.5,1.9-4.9
				c0.3-0.8,0.5-1.5,0.8-2.2c1.2-1,2.2-1.8,2.5-2.1c0.6-0.6,1.3-1.2,1.9-1.8c0.4-0.4,0.8-0.8,1.2-1.2c0.1-0.1,0.2-0.2,0.2-0.3
				c0.1-0.1,0.2-0.3,0.4-0.4c2.3-2.5,4.4-5.3,6.3-8.1c0.9-1.4,1.8-2.9,2.6-4.4c0.8-1.5,1.6-3.1,2.2-4.7c1.3-3.2,2.3-6.7,2.6-10.4
				C178,69,178,68.1,178,67.1z M120.3,70c0.7-1.8,1.7-5.2,2.3-6.7c2.1-5.3,4.2-10,5.6-13.3c1.7-3.9,4.2-8.6,5.7-10.5
				c3.6-4.6,5.7-5.4,6.7-5.4c0.4,0,0.6,0.1,0.7,0.2c1.5,0.8,2.8,3.5,0.6,9c-1.8,4.5-5.4,9.7-7.4,12.6c-2,2.9-4.4,6-7.2,9.4
				c-2.8,3.4-5.8,6.9-9,10.4C118.9,73.7,119.6,71.8,120.3,70z M142.7,117.8c-1.1,2.1-2.2,4-3.3,5.7c-1.1,1.7-2.1,3.1-3,4.2
				c-0.9,1.1-1.7,1.7-2.2,1.8c0,0,0,0-0.1,0c-0.3,0-0.4-0.2-0.4-0.6c0-1.7,0.4-3.4,1.2-5c0.8-1.6,1.8-3.1,3-4.6
				c1.2-1.4,2.5-2.8,3.9-4c1.4-1.2,2.6-2.4,3.8-3.4C144.8,113.8,143.8,115.8,142.7,117.8z"/>
		</g>
	</g>
</g>
<g>
	<linearGradient id="SVGID_1_" gradientUnits="userSpaceOnUse" x1="14.7862" y1="104.5561" x2="32.0176" y2="93.5512">
		<stop  offset="0" style="stop-color:#D60A51"/>
		<stop  offset="1" style="stop-color:#7D062F"/>
	</linearGradient>
	<path class="st1" d="M26.8,87.1l-5.5,20l-3.4,5.2l-5.7-3.5c0,0,4.7-7.9,6.2-10.1s5.4-7.8,5.4-7.8L26.8,87.1z"/>
	<linearGradient id="SVGID_2_" gradientUnits="userSpaceOnUse" x1="44.6704" y1="75.4153" x2="32.5071" y2="81.0143">
		<stop  offset="0" style="stop-color:#D60A51"/>
		<stop  offset="1" style="stop-color:#7D062F"/>
	</linearGradient>
	<path class="st2" d="M40.9,71.9l-2.4,12.9c0,0,6-6.6,7.5-8l-1.6-7.7L40.9,71.9z"/>
	<linearGradient id="SVGID_3_" gradientUnits="userSpaceOnUse" x1="44.0788" y1="106.1809" x2="44.5132" y2="115.3758">
		<stop  offset="0" style="stop-color:#D60A51"/>
		<stop  offset="1" style="stop-color:#7D062F"/>
	</linearGradient>
	<path class="st3" d="M43.5,111.5l-8.4-5.8l18-1.5C53,104.3,46,110.2,43.5,111.5z"/>
	<linearGradient id="SVGID_4_" gradientUnits="userSpaceOnUse" x1="60.8203" y1="50.8469" x2="57.7433" y2="56.9647">
		<stop  offset="0" style="stop-color:#D60A51"/>
		<stop  offset="1" style="stop-color:#7D062F"/>
	</linearGradient>
	<path class="st4" d="M57,51.9c0,0-0.8,4.6,3.4,1.4c1.3-1,3.6-3.2,5.1-5L63.3,47l-3.6,3.3C59.8,50.3,57,52.7,57,51.9z"/>
	<linearGradient id="SVGID_5_" gradientUnits="userSpaceOnUse" x1="64.394" y1="47.5814" x2="67.8692" y2="43.7804">
		<stop  offset="0" style="stop-color:#D60A51"/>
		<stop  offset="1" style="stop-color:#7D062F"/>
	</linearGradient>
	<path class="st5" d="M66.1,44.2c0,0-0.6,3.5-0.6,4.1L64.8,49l-1.9-1.6L66.1,44.2z"/>
	<linearGradient id="SVGID_6_" gradientUnits="userSpaceOnUse" x1="76.3142" y1="48.978" x2="79.2826" y2="46.987">
		<stop  offset="0" style="stop-color:#D60A51"/>
		<stop  offset="1" style="stop-color:#7D062F"/>
	</linearGradient>
	<path class="st6" d="M78.5,45.3c0,0-0.4,2.9,0,4.2L77,50.8l-2.1-1.2C74.9,49.6,76.5,47.8,78.5,45.3z"/>
	<linearGradient id="SVGID_7_" gradientUnits="userSpaceOnUse" x1="91.4361" y1="45.5178" x2="93.8978" y2="43.2734">
		<stop  offset="0" style="stop-color:#D60A51"/>
		<stop  offset="1" style="stop-color:#7D062F"/>
	</linearGradient>
	<path class="st7" d="M91.9,42.9c0,0,0,0.1,0.1,0.2c0.2,0.5,0.9,1.9,1.6,2.3c0,0-1.4,1.7-2.4,2.7l-2.1-1.6"/>
	<linearGradient id="SVGID_8_" gradientUnits="userSpaceOnUse" x1="94.5143" y1="36.5194" x2="97.8809" y2="35.9764">
		<stop  offset="0" style="stop-color:#D60A51"/>
		<stop  offset="1" style="stop-color:#7D062F"/>
	</linearGradient>
	<path class="st8" d="M94.5,39.7c0,0,2.6-5.4,1.6-6.6C96.1,33.1,94.4,34.7,94.5,39.7z"/>
	<linearGradient id="SVGID_9_" gradientUnits="userSpaceOnUse" x1="101.1797" y1="41.6626" x2="107.0442" y2="39.4906">
		<stop  offset="0" style="stop-color:#D60A51"/>
		<stop  offset="1" style="stop-color:#7D062F"/>
	</linearGradient>
	<path class="st9" d="M105.3,37.5L104,42c0,0-1.9,1.7-2.9,2.3l-0.8-2.2C100.3,42.2,101.1,41.8,105.3,37.5z"/>
	<linearGradient id="SVGID_10_" gradientUnits="userSpaceOnUse" x1="110.3177" y1="40.7143" x2="120.625" y2="40.7143">
		<stop  offset="0" style="stop-color:#D60A51"/>
		<stop  offset="1" style="stop-color:#7D062F"/>
	</linearGradient>
	<path class="st10" d="M110.4,43.9c-0.3,1.2,0.1,2.3,0.8,1.9c0.7-0.3,6.1-5.5,9.4-10.3l-7.4,7.1c0,0-2,1.7-2.6,1.7
		C110.3,44.3,110.4,43.9,110.4,43.9z"/>
	<linearGradient id="SVGID_11_" gradientUnits="userSpaceOnUse" x1="124.0579" y1="73.7498" x2="110.9292" y2="83.6929">
		<stop  offset="0" style="stop-color:#D60A51"/>
		<stop  offset="1" style="stop-color:#7D062F"/>
	</linearGradient>
	<path class="st11" d="M118.2,75.6c0,0-2,5.8-2.8,9l10.4-10.7l-2.3-3.9C123.4,70,118.9,75,118.2,75.6z"/>
	<linearGradient id="SVGID_12_" gradientUnits="userSpaceOnUse" x1="99.4213" y1="98.459" x2="108.3024" y2="94.6942">
		<stop  offset="0" style="stop-color:#D60A51"/>
		<stop  offset="1" style="stop-color:#7D062F"/>
	</linearGradient>
	<polygon class="st12" points="103.1,93.4 102.6,98.1 98.2,102.5 97.6,98.8 	"/>
	<linearGradient id="SVGID_13_" gradientUnits="userSpaceOnUse" x1="81.1437" y1="97.4267" x2="92.6313" y2="85.2633">
		<stop  offset="0" style="stop-color:#D60A51"/>
		<stop  offset="1" style="stop-color:#7D062F"/>
	</linearGradient>
	<path class="st13" d="M84.1,98l4.4-13.4c0,0-5.4,9.6-7.8,12.6l-1.2,7.1L84.1,98z"/>
	<linearGradient id="SVGID_14_" gradientUnits="userSpaceOnUse" x1="139.9802" y1="34.4155" x2="148.3787" y2="40.6419">
		<stop  offset="0" style="stop-color:#D60A51"/>
		<stop  offset="1" style="stop-color:#7D062F"/>
	</linearGradient>
	<path class="st14" d="M141.8,43.2c-1.2,2.4,8.7-13.1,0.2-14.5l-4.2,6.6c0,0,0.6-1.7,2.9-1.2C143,34.7,143.6,39.5,141.8,43.2z"/>
	<linearGradient id="SVGID_15_" gradientUnits="userSpaceOnUse" x1="120.3758" y1="87.1634" x2="128.3158" y2="88.9976">
		<stop  offset="0" style="stop-color:#D60A51"/>
		<stop  offset="1" style="stop-color:#7D062F"/>
	</linearGradient>
	<path class="st15" d="M119.9,93.6c0,0,3.9-6.1,4.5-7.4c0.6-1.3,1.2-5.3-1.8-4.8c0,0-1.6,2-2.8,4.3s-0.3,5.5-0.3,5.5L119.9,93.6z"/>
	<linearGradient id="SVGID_16_" gradientUnits="userSpaceOnUse" x1="132.2301" y1="93.7004" x2="137.6843" y2="90.1769">
		<stop  offset="0" style="stop-color:#D60A51"/>
		<stop  offset="1" style="stop-color:#7D062F"/>
	</linearGradient>
	<path class="st16" d="M136.5,88.9l-1.7,5.2c0,0-1.4,1.2-3.6,2v-3.5C131.2,92.6,133.6,91.8,136.5,88.9z"/>
	<linearGradient id="SVGID_17_" gradientUnits="userSpaceOnUse" x1="127.6524" y1="95.4355" x2="120.1469" y2="96.063">
		<stop  offset="0" style="stop-color:#D60A51"/>
		<stop  offset="1" style="stop-color:#7D062F"/>
	</linearGradient>
	<path class="st17" d="M126.9,93.6l-2.4,4c0,0,3.4-0.6,3.9-0.7c0.6-0.1,0.5-3.5,0.5-3.5L126.9,93.6z"/>
	<linearGradient id="SVGID_18_" gradientUnits="userSpaceOnUse" x1="147.248" y1="94.3092" x2="142.8016" y2="96.6758">
		<stop  offset="0" style="stop-color:#D60A51"/>
		<stop  offset="1" style="stop-color:#7D062F"/>
	</linearGradient>
	<path class="st18" d="M144.4,94.1c-0.3,1.6,3.2,3,5.1,0.6l-2.6-2.2c0,0-1.3,1.2-1.7,1.4C144.7,94.3,144.4,94.1,144.4,94.1z"/>
	<linearGradient id="SVGID_19_" gradientUnits="userSpaceOnUse" x1="151.7388" y1="85.3475" x2="156.5897" y2="84.5873">
		<stop  offset="0" style="stop-color:#D60A51"/>
		<stop  offset="1" style="stop-color:#7D062F"/>
	</linearGradient>
	<path class="st19" d="M152.9,90.6l3.2-11.3c0,0-3.8,6.7-5.8,9.3L152.9,90.6z"/>
	<linearGradient id="SVGID_20_" gradientUnits="userSpaceOnUse" x1="143.3811" y1="111.062" x2="155.2548" y2="105.463">
		<stop  offset="0" style="stop-color:#D60A51"/>
		<stop  offset="1" style="stop-color:#7D062F"/>
	</linearGradient>
	<path class="st20" d="M148,105.7l-2.3,6l-3.5,3.1l-2.6-2.2C139.7,112.5,145,107.9,148,105.7z"/>
	<linearGradient id="SVGID_21_" gradientUnits="userSpaceOnUse" x1="131.5686" y1="125.493" x2="132.0513" y2="134.1811">
		<stop  offset="0" style="stop-color:#D60A51"/>
		<stop  offset="1" style="stop-color:#7D062F"/>
	</linearGradient>
	<path class="st21" d="M134.4,129.5c-1.4,0.4-5.7,0.8-5.7-1.7c0,0,0.3-1.9,1.3-3.8l4.5,0.8c0,0-0.7,1.7-0.8,3.8
		C133.7,129.9,134.4,129.5,134.4,129.5z"/>
	<linearGradient id="SVGID_22_" gradientUnits="userSpaceOnUse" x1="4.799" y1="132.2942" x2="3.2545" y2="145.2298">
		<stop  offset="0" style="stop-color:#D60A51"/>
		<stop  offset="1" style="stop-color:#7D062F"/>
	</linearGradient>
	<path class="st22" d="M8.2,137.7C8.2,137.7,8.2,137.7,8.2,137.7c-1.2,0.9-6.2,2.8-8-1.1c0,0,0.9-3.4,1.6-5.4l6.2,0.3
		c0,0-0.7,1.9-1.1,4.8C6.7,139,8.2,137.7,8.2,137.7z"/>
	<linearGradient id="SVGID_23_" gradientUnits="userSpaceOnUse" x1="94.3989" y1="103.0047" x2="90.3445" y2="106.7695">
		<stop  offset="0" style="stop-color:#D60A51"/>
		<stop  offset="1" style="stop-color:#7D062F"/>
	</linearGradient>
	<path class="st23" d="M91.2,103.1c0,1,2.5,3,4.1,1.9l1.1-1l-2.2-2.4l-1.6,1.2C92.6,102.8,91.9,103.3,91.2,103.1"/>
	<polygon class="st24" points="96.1,75.6 94.6,68.8 98.5,66.8 	"/>
	<polygon class="st25" points="89.4,68.8 96.1,75.6 83.4,68.4 	"/>
	<polygon class="st26" points="89.4,68.8 88.8,62.4 93,62.2 94.6,68.8 	"/>
	<polygon class="st24" points="98.5,66.8 96.8,61.1 99.6,58.4 104.1,63.9 	"/>
	<polyline class="st26" points="99.6,58.4 84.7,62 88.8,62.4 93,62.2 96.8,61.1 99.6,58.4 	"/>
	<linearGradient id="SVGID_24_" gradientUnits="userSpaceOnUse" x1="162.0121" y1="97.1577" x2="149.0765" y2="107.1008">
		<stop  offset="0" style="stop-color:#D60A51"/>
		<stop  offset="1" style="stop-color:#7D062F"/>
	</linearGradient>
	<path class="st27" d="M160.1,96.4l-2.1,7c0,0,3.7-3,7.2-7l-3-2.6L160.1,96.4z"/>
</g>
</svg>
