<?xml version="1.0" encoding="utf-8"?>
<!-- Generator: Adobe Illustrator 24.2.1, SVG Export Plug-In . SVG Version: 6.00 Build 0)  -->
<svg version="1.1" id="mm-name" xmlns="http://www.w3.org/2000/svg" xmlns:xlink="http://www.w3.org/1999/xlink" x="0px" y="0px"
	 viewBox="0 0 677.5 197.8" style="overflow:visible;enable-background:new 0 0 677.5 197.8;" xml:space="preserve">
<g>
	<path pointer-events="bounding-box" class="letter" d="M114.9,30.2v41.4H93.2V31.8c0-8.1-4.5-13.4-12-13.4c-7.7,0-12.9,5.3-12.9,13.4v39.9H46.6V31.8c0-8.1-4.5-13.4-12.2-13.4
		c-7.6,0-12.7,5.3-12.7,13.4v39.9H0v-70h18.2v8.8C23.1,4.3,30.4,0,40.2,0c9.7,0,17.2,3.6,22.1,10.1C67.8,4.1,75.7,0,86,0
		C103.3,0,114.9,11.9,114.9,30.2z"/>
	<path pointer-events="bounding-box" class="letter" d="M195.1,1.7v70h-17.8v-7.4c-6.2,5.7-14.3,9.1-23,9.1c-20.4,0-35.1-16.1-35.1-36.7C119.3,16.1,134,0,154.4,0
		c9.1,0,16.9,3.4,23,8.8V1.7H195.1z M174.7,36.7c0-11.3-7.4-18.2-16.9-18.2c-10.2,0-17.1,8-17.1,18.2s6.9,18.2,17.1,18.2
		C167.3,54.9,174.7,48,174.7,36.7z"/>
	<path pointer-events="bounding-box" class="letter" d="M253,4.1l-4.5,15.1l-1.5,1c-2.7-1.4-5.3-1.7-8.4-1.7c-8.5,0-14.1,6.4-14.1,15.7v37.5h-21.7v-70H221v9.1
		C225.6,4.1,232.2,0,240.3,0c4.3,0,8.1,0.8,11.8,2.4L253,4.1z"/>
	<path pointer-events="bounding-box" class="letter" d="M250.6,36.7c0-21.1,16.2-36.7,38.1-36.7c12.9,0,22.7,5.3,29,12.3v1.5l-12,11.1H304c-3.5-4.1-8.5-6.4-14.4-6.4
		c-10.4,0-17.5,7.7-17.5,18.2s7,18.2,17.6,18.2c5.6,0,10.8-2.1,14.3-6.4h1.7l12,11.1V61c-6.3,7-16.1,12.3-29,12.3
		C266.8,73.4,250.6,57.8,250.6,36.7z"/>
</g>
<g>
	<path pointer-events="bounding-box" class="letter" d="M208.9,132.5v41.4h-21.7V134c0-8.1-4.5-13.4-12-13.4c-7.7,0-12.9,5.3-12.9,13.4v39.9h-21.7V134c0-8.1-4.5-13.4-12.2-13.4
		c-7.6,0-12.7,5.3-12.7,13.4v39.9H94v-70h18.2v8.8c4.9-6.2,12.2-10.5,22-10.5c9.7,0,17.2,3.6,22.1,10.1c5.5-6,13.4-10.1,23.7-10.1
		C197.3,102.2,208.9,114.1,208.9,132.5z"/>
	<path pointer-events="bounding-box" class="letter" d="M213.7,138.9c0-21.1,16.2-36.7,38.1-36.7c12.9,0,22.7,5.3,29,12.3v1.5l-12,11.1h-1.7c-3.5-4.1-8.5-6.4-14.4-6.4
		c-10.4,0-17.5,7.7-17.5,18.2s7,18.2,17.6,18.2c5.6,0,10.8-2.1,14.3-6.4h1.7l12,11.1v1.5c-6.3,7-16.1,12.3-29,12.3
		C230,175.6,213.7,160,213.7,138.9z"/>
	<path pointer-events="bounding-box" class="letter" d="M357.8,132.5v41.4h-21.6V134c0-8-4.9-13.4-12.9-13.4s-13.2,5.5-13.2,13.4v39.9h-21.4V82.7l19.9-4.2l1.5,1v29.7
		c4.6-4.2,10.8-6.9,18.6-6.9C346,102.2,357.8,114.1,357.8,132.5z"/>
	<path pointer-events="bounding-box" class="letter" d="M438.7,103.9v70h-17.8v-7.4c-6.2,5.7-14.3,9.1-23,9.1c-20.4,0-35.1-16.1-35.1-36.7s14.7-36.7,35.1-36.7
		c9.1,0,16.9,3.4,23,8.8v-7.1L438.7,103.9L438.7,103.9z M418.2,138.9c0-11.3-7.4-18.2-16.9-18.2c-10.2,0-17.1,8-17.1,18.2
		s6.9,18.2,17.1,18.2C410.8,157.1,418.2,150.2,418.2,138.9z"/>
	<path pointer-events="bounding-box" class="letter" d="M497.3,106.3l-4.5,15.1l-1.5,1c-2.7-1.4-5.3-1.7-8.4-1.7c-8.5,0-14.1,6.4-14.1,15.7v37.5H447v-70h18.2v9.1
		c4.6-6.7,11.2-10.8,19.3-10.8c4.3,0,8.1,0.8,11.8,2.4L497.3,106.3z"/>
	<path pointer-events="bounding-box" class="letter" d="M571.1,79.4v94.5h-18.2v-7.8c-5.6,5.7-13.2,9.5-22.5,9.5c-20.4,0-35.1-16.1-35.1-36.7s14.7-36.7,35.1-36.7
		c7.3,0,13.7,2.2,19.2,5.9V82.7l19.9-4.2L571.1,79.4z M550.7,138.9c0-11.3-7.4-18.2-16.9-18.2c-10.2,0-17.1,8-17.1,18.2
		s6.9,18.2,17.1,18.2C543.3,157.1,550.7,150.2,550.7,138.9z"/>
	<path pointer-events="bounding-box" class="letter" d="M653.3,105.4l-31.6,73.1c-6.3,14.7-15.8,18.5-25.5,18.5c-5.2,0-9.5-1.1-12.9-3.1l-0.7-1.4l3.9-13.3l1.5-0.7
		c1.7,1,4.3,1.7,7,1.7c2.8,0,6-0.7,8.3-5.6l2.9-6.2l-28.8-63l1-1.5h21.3l16.9,44l16.8-44h18.8L653.3,105.4z"/>
	<path pointer-events="bounding-box" class="letter" d="M643.2,160.4c0-7.4,6-13.4,13.4-13.4s13.3,6,13.3,13.4c0,7.3-5.9,13.3-13.3,13.3S643.2,167.6,643.2,160.4z"/>
</g>
</svg>
