<?xml version="1.0" encoding="utf-8"?>
<!-- Generator: Adobe Illustrator 24.2.1, SVG Export Plug-In . SVG Version: 6.00 Build 0)  -->
<svg version="1.1" id="mm-name" xmlns="http://www.w3.org/2000/svg" xmlns:xlink="http://www.w3.org/1999/xlink" x="0px" y="0px"
	 viewBox="0 0 361.5 73.4" style="enable-background:new 0 0 361.5 73.4;" xml:space="preserve">
<path d="M114.9,30.2v41.4H93.2V31.8c0-8.1-4.5-13.4-12-13.4c-7.7,0-12.9,5.3-12.9,13.4v39.9H46.6V31.8c0-8.1-4.5-13.4-12.2-13.4
	c-7.6,0-12.7,5.3-12.7,13.4v39.9H0v-70h18.2v8.8C23.1,4.3,30.4,0,40.2,0c9.7,0,17.2,3.6,22.1,10.1C67.8,4.1,75.7,0,86,0
	C103.3,0,114.9,11.9,114.9,30.2z"/>
<path d="M197.1,1.7v70h-17.8v-7.4c-6.2,5.7-14.3,9.1-23,9.1c-20.4,0-35.1-16.1-35.1-36.7C121.3,16.1,136,0,156.4,0
	c9.1,0,16.9,3.4,23,8.8V1.7H197.1z M176.7,36.7c0-11.3-7.4-18.2-16.9-18.2c-10.2,0-17.1,8-17.1,18.2c0,10.2,6.9,18.2,17.1,18.2
	C169.3,54.9,176.7,48,176.7,36.7z"/>
<path d="M256,4.1l-4.5,15.1l-1.5,1c-2.7-1.4-5.3-1.7-8.4-1.7c-8.5,0-14.1,6.4-14.1,15.7v37.5h-21.7v-70H224v9.1
	C228.6,4.1,235.2,0,243.3,0c4.3,0,8.1,0.8,11.8,2.4L256,4.1z"/>
<path d="M255.6,36.7c0-21.1,16.2-36.7,38.1-36.7c12.9,0,22.7,5.3,29,12.3v1.5l-12,11.1h-1.7c-3.5-4.1-8.5-6.4-14.4-6.4
	c-10.4,0-17.5,7.7-17.5,18.2s7,18.2,17.6,18.2c5.6,0,10.8-2.1,14.3-6.4h1.7l12,11.1V61c-6.3,7-16.1,12.3-29,12.3
	C271.8,73.4,255.6,57.8,255.6,36.7z"/>
<path d="M329.2,60.1c0-7.4,6-13.4,13.4-13.4s13.3,6,13.3,13.4c0,7.3-5.9,13.3-13.3,13.3S329.2,67.3,329.2,60.1z"/>
</svg>
